<?xml version="1.0" encoding="UTF-8" standalone="no"?>
<!DOCTYPE svg PUBLIC "-//W3C//DTD SVG 1.1//EN" "http://www.w3.org/Graphics/SVG/1.1/DTD/svg11.dtd">
<svg width="100%" height="100%" viewBox="0 0 152 152" version="1.1" xmlns="http://www.w3.org/2000/svg" xmlns:xlink="http://www.w3.org/1999/xlink" xml:space="preserve" xmlns:serif="http://www.serif.com/" style="fill-rule:evenodd;clip-rule:evenodd;stroke-linejoin:round;stroke-miterlimit:2;">
    <g transform="matrix(2.06377,0,0,2.10463,-17.6261,-59.0598)">
        <ellipse cx="45.367" cy="64.121" rx="36.826" ry="36.059" style="fill:white;"/>
    </g>
    <g transform="matrix(0.59185,0,0,0.59185,30.7798,27.6441)">
        <g id="Desktop-HD-Copy">
            <g id="couper-4">
                <g id="Group-39">
                    <path id="Fill-2" d="M87.395,42.775C83.681,42.076 79.858,41.669 75.938,41.669C42.031,41.669 14.544,69.108 14.544,102.955L14.544,114.286L37.457,120.721L37.457,102.955C37.457,73.02 58.968,48.137 87.395,42.775" style="fill:rgb(227,228,228);"/>
                    <path id="Path" d="M97.262,0.364L88.698,15.17L80.219,0.364L71.65,15.185L63.113,0.379L54.544,15.191L52.007,10.811L39.85,10.811L39.85,16.84L48.519,16.84L54.544,27.248L63.101,12.451L71.641,27.257L80.192,12.466L88.671,27.269L97.235,12.466L99.768,16.888L109.875,16.888L109.875,10.86L103.271,10.86L97.262,0.364Z" style="fill:rgb(101,179,46);"/>
                    <path id="Fill-4" d="M17.565,114.748L17.565,102.953C17.565,70.824 43.751,44.684 75.937,44.684C108.126,44.684 134.312,70.824 134.312,102.953L134.312,114.709C128.104,116.433 107.899,121.223 75.197,121.223C42.661,121.223 23.486,116.481 17.565,114.748M30.507,13.598C30.507,11.168 32.485,9.194 34.919,9.194C37.352,9.194 39.33,11.168 39.33,13.598C39.33,16.027 37.352,18.002 34.919,18.002C32.485,18.002 30.507,16.027 30.507,13.598M112.278,13.598C112.278,11.168 114.259,9.194 116.693,9.194C119.126,9.194 121.104,11.168 121.104,13.598C121.104,16.027 119.126,18.002 116.693,18.002C114.259,18.002 112.278,16.027 112.278,13.598M119.899,56.09L119.899,23.476C124.088,22.113 127.143,18.225 127.143,13.598C127.143,7.847 122.454,3.165 116.693,3.165C110.928,3.165 106.239,7.847 106.239,13.598C106.239,18.363 109.476,22.348 113.86,23.59L113.86,51.096C103.207,43.31 90.123,38.656 75.937,38.656C61.754,38.656 48.67,43.31 38.017,51.096L38.017,23.509C42.262,22.183 45.369,18.264 45.369,13.598C45.369,7.847 40.68,3.165 34.919,3.165C29.157,3.165 24.468,7.847 24.468,13.598C24.468,18.324 27.653,22.279 31.977,23.557L31.977,56.09C19.425,67.831 11.526,84.47 11.526,102.953L11.526,152.14L17.565,152.14L17.565,121.027C23.193,122.567 34.74,125.132 52.411,126.435L52.39,152.137L58.429,152.143L58.45,126.811C63.596,127.083 69.14,127.252 75.197,127.252C81.777,127.252 87.798,127.053 93.366,126.739L93.348,152.137L99.387,152.143L99.408,126.341C116.94,124.988 128.644,122.453 134.312,120.964L134.312,152.14L140.351,152.14L140.351,102.953C140.351,84.47 132.452,67.831 119.899,56.09" style="fill:rgb(26,27,28);"/>
                    <path id="Fill-6" d="M82.703,87.309C82.703,94.788 88.775,100.849 96.267,100.849C103.759,100.849 109.828,94.788 109.828,87.309C109.828,79.834 103.759,73.769 96.267,73.769C88.775,73.769 82.703,79.834 82.703,87.309" style="fill:rgb(62,161,193);"/>
                    <path id="Fill-8" d="M96.266,76.784C90.453,76.784 85.722,81.505 85.722,87.31C85.722,93.113 90.453,97.836 96.266,97.836C102.079,97.836 106.811,93.113 106.811,87.31C106.811,81.505 102.079,76.784 96.266,76.784M96.266,103.865C87.123,103.865 79.682,96.44 79.682,87.31C79.682,78.183 87.123,70.756 96.266,70.756C105.409,70.756 112.85,78.183 112.85,87.31C112.85,96.44 105.409,103.865 96.266,103.865" style="fill:rgb(26,27,28);"/>
                    <path id="Fill-10" d="M100.992,87.309C100.992,84.705 98.875,82.595 96.266,82.595C93.657,82.595 91.543,84.705 91.543,87.309C91.543,89.914 93.657,92.027 96.266,92.027C98.875,92.027 100.992,89.914 100.992,87.309" style="fill:rgb(26,27,28);"/>
                    <path id="Fill-12" d="M104.858,82.514C105.664,80.036 104.302,77.375 101.82,76.573C99.338,75.771 96.675,77.128 95.868,79.608C95.065,82.083 96.427,84.745 98.906,85.546C101.391,86.348 104.055,84.992 104.858,82.514" style="fill:white;"/>
                    <path id="Fill-14" d="M28.878,164.681L22.839,164.681L22.839,161.667C22.839,157.055 19.083,153.306 14.466,153.306C9.846,153.306 6.089,157.055 6.089,161.667L6.089,164.681L0.05,164.681L0.05,161.667C0.05,153.734 6.518,147.277 14.466,147.277C22.41,147.277 28.878,153.734 28.878,161.667L28.878,164.681Z" style="fill:rgb(170,100,170);"/>
                    <path id="Fill-16" d="M151.749,164.681L145.709,164.681L145.709,161.667C145.709,157.055 141.953,153.306 137.336,153.306C132.716,153.306 128.96,157.055 128.96,161.667L128.96,164.681L122.92,164.681L122.92,161.667C122.92,153.734 129.385,147.277 137.336,147.277C145.284,147.277 151.749,153.734 151.749,161.667L151.749,164.681Z" style="fill:rgb(235,61,62);"/>
                    <path id="Fill-18" d="M69.836,164.681L63.797,164.681L63.797,161.667C63.797,157.055 60.04,153.306 55.42,153.306C50.803,153.306 47.047,157.055 47.047,161.667L47.047,164.681L41.008,164.681L41.008,161.667C41.008,153.734 47.473,147.277 55.42,147.277C63.368,147.277 69.836,153.734 69.836,161.667L69.836,164.681Z" style="fill:rgb(62,161,193);"/>
                    <path id="Fill-20" d="M110.792,164.681L104.753,164.681L104.753,161.667C104.753,157.055 100.997,153.306 96.377,153.306C91.76,153.306 88.003,157.055 88.003,161.667L88.003,164.681L81.964,164.681L81.964,161.667C81.964,153.734 88.429,147.277 96.377,147.277C104.324,147.277 110.792,153.734 110.792,161.667L110.792,164.681Z" style="fill:rgb(246,171,31);"/>
                </g>
            </g>
        </g>
    </g>
</svg>
